<svg width="780" height="234" viewBox="0 0 780 234" fill="none" xmlns="http://www.w3.org/2000/svg">
<path d="M671.11 123.172C674.798 115.984 680.347 106.45 683.443 101.984C690.166 92.2854 691.868 91.9002 699.903 98.2552C705.144 102.4 712.376 113.113 715.259 121.004C717.168 126.226 719.039 125.189 726.34 114.863C732.561 106.063 737.972 101.285 744.576 98.7624C750.291 96.5777 753.703 97.2809 758.705 101.675C769.302 110.985 774.239 125.057 777.966 156.575C778.221 158.731 778.737 167.889 779.114 176.927L779.798 193.359L771.178 193.202C763.619 193.065 762.451 192.765 761.687 190.768C761.208 189.515 759.729 179.923 758.399 169.453C757.071 158.983 755.507 146.736 754.925 142.238C753.785 133.42 751.48 127.76 748.575 126.645C747.318 126.162 745.417 127.482 742.448 130.902C738.79 135.115 735.022 142.086 725.245 162.734C723.886 165.605 722.906 170.239 722.609 175.197C722.476 177.431 716.008 179.275 710.248 178.721C701.845 177.913 700.966 176.712 701.714 167.06C702.472 157.268 700.652 136.427 698.611 131.543C697.802 129.606 696.377 127.387 695.445 126.614C694.01 125.423 693.344 125.978 691.077 130.254C689.606 133.029 687.995 135.299 687.495 135.299C686.996 135.299 686.899 135.803 687.279 136.418C687.66 137.034 687.408 137.538 686.72 137.538C686.031 137.538 685.744 137.984 686.081 138.529C686.644 139.44 674.733 171.41 672.168 175.876C671.553 176.946 671.051 179.534 671.051 181.627C671.051 186.448 668.169 188.453 659.859 189.408C649.582 190.588 649.084 190.197 648.257 180.279C647.864 175.555 646.776 167.911 645.841 163.293C644.906 158.674 643.435 150.497 642.573 145.121C641.71 139.743 640.153 132.436 639.113 128.883C636.535 120.076 636.571 109.039 639.187 106.147C640.283 104.935 642.37 103.944 643.826 103.944C647.459 103.944 655.381 109.133 655.387 111.517C655.389 112.587 656.598 115.84 658.07 118.746C659.544 121.651 661.102 127.068 661.533 130.782C661.964 134.499 662.787 137.244 663.362 136.889C663.936 136.533 667.423 130.361 671.11 123.172Z" fill="currentColor"/>
<path fill-rule="evenodd" clip-rule="evenodd" d="M584.016 102.851C578.963 104.147 567.119 111.481 563.748 115.402C562.757 116.556 560.343 120.466 558.384 124.092C556.426 127.718 553.333 132.078 551.512 133.78C548.623 136.481 548.202 137.655 548.202 143.015C548.202 146.393 548.949 151.608 549.864 154.604C550.777 157.6 552.324 162.949 553.3 166.491C554.972 172.553 560.562 181.074 565.667 185.34C569.924 188.899 580.072 194.474 584.986 195.953C596.809 199.513 620.454 198.867 630.867 194.698C635.722 192.754 635.73 192.74 635.004 188.159C634.495 184.952 633.219 182.662 630.771 180.563C627.887 178.092 627.508 177.267 628.639 175.905C630.667 173.459 628.555 172.726 622.981 173.94C612.566 176.207 603.678 176.479 595.585 174.777C584.083 172.357 574.065 165.423 573.98 159.822C573.951 157.899 574.748 157.216 577.581 156.732C585.433 155.391 606.418 153.895 617.386 153.894C632.268 153.893 633.244 153.371 632.8 145.665C632.26 136.299 623.196 120.669 613.431 112.262C603.038 103.316 593.772 100.352 584.016 102.851ZM600.802 127.174L604.717 129.561L601.921 130.614C598.823 131.78 585.136 130.715 585.136 129.307C585.136 128.057 591.952 124.832 594.649 124.808C595.88 124.795 598.649 125.86 600.802 127.174Z" fill="currentColor"/>
<path d="M448.306 50.4233C445.738 43.6653 447.934 31.0707 451.963 29.4481C456.549 27.6015 465.543 31.7594 467.191 36.4884C467.863 38.4212 469.44 41.3058 470.693 42.9004C472.321 44.971 472.971 47.4603 472.971 51.6193C472.971 54.8209 472.594 57.8186 472.132 58.2811C471.105 59.3091 470.971 62.439 470.737 91.1286C470.632 104.036 470.109 113.805 469.523 113.805C468.958 113.805 468.495 114.561 468.495 115.485C468.495 118.496 470.696 117.273 476.491 111.042C479.624 107.675 484.452 103.822 487.221 102.481C491.746 100.289 492.826 100.173 497.886 101.342C510.453 104.245 523.5 115.507 532.947 131.61C540.781 144.959 542.936 155.253 540.065 165.595C536.469 178.549 509.863 192.204 491.88 190.323C482.088 189.299 480.681 187.628 481.454 177.936C481.786 173.767 482.406 170.07 482.83 169.721C483.256 169.371 486.878 168.446 490.879 167.667C499.137 166.058 513.142 158.684 517.305 153.752C518.775 152.012 519.978 149.356 519.978 147.851C519.978 140.626 505.475 126.123 498.25 126.123C496.108 126.123 494.344 127.73 490.569 133.122C480.373 147.685 476.083 160.845 476.18 177.255C476.237 186.91 476.082 187.618 473.527 189.293C472.034 190.271 469.811 191.072 468.586 191.072C467.363 191.072 465.116 191.64 463.594 192.334C460.073 193.939 455.473 192.808 453.951 189.964C452.67 187.569 452.199 175.321 451.214 118.844C450.387 71.402 449.646 53.9474 448.306 50.4233Z" fill="currentColor"/>
<path d="M387.682 118.43C394.846 109.298 401.3 103.041 406.179 100.497C412.833 97.027 415.948 97.1412 421.1 101.043C427.52 105.906 432.517 112.997 436.536 122.948C440.089 131.746 440.15 132.198 439.932 148.144C439.742 162.087 439.293 169.981 438.691 169.981C438.604 169.981 438.326 171.955 438.075 174.367C437.823 176.78 437.151 179.219 436.583 179.788C435.14 181.231 421.095 179.58 419.613 177.793C418.753 176.754 418.782 170.32 419.718 155.243C420.806 137.724 420.768 133.402 419.492 129.754C418.647 127.337 417.367 125.166 416.646 124.929C415.16 124.442 402.848 136.325 402.848 138.246C402.848 138.935 401.347 141.938 399.512 144.921C395.31 151.755 390.931 162.114 390.158 167.051C389.832 169.135 389.071 171.335 388.468 171.938C387.1 173.307 370.855 172.578 369.376 171.08C367.351 169.031 367.007 159.563 368.697 152.391C369.611 148.515 370.365 143.439 370.374 141.11C370.396 135.539 367.642 128.944 365.618 129.721C364.193 130.269 358.985 139.45 358.663 141.985C358.328 144.609 356.547 150.029 355.166 152.624C352.207 158.182 343.779 180.186 342.492 185.714C340.903 192.539 338.574 193.738 328.074 193.136C321.627 192.767 320.913 192.472 319.876 189.754C318.614 186.453 317.964 171.673 317.37 132.795C316.998 108.486 317.11 106.66 319.103 104.52C323.583 99.7078 332.283 103.251 335.2 111.075C336.256 113.91 337.807 117.025 338.647 117.998C339.486 118.97 340.172 121.645 340.172 123.943C340.172 126.24 340.636 127.833 341.202 127.483C341.768 127.132 344.637 122.032 347.575 116.148C353.969 103.344 356.8 99.9922 361.222 99.9922C366.039 99.9922 374.196 106.823 379.597 115.38L384.27 122.78L387.682 118.43Z" fill="currentColor"/>
<path fill-rule="evenodd" clip-rule="evenodd" d="M264.833 96.4745C254.311 99.751 242.471 114.932 238.572 130.148C237.654 133.73 236.445 135.593 234.397 136.586C229.452 138.986 227.546 143.1 228.398 149.529C229.171 155.363 230.714 159.254 232.788 160.601C233.445 161.027 234.591 163.799 235.333 166.76C238.257 178.417 240.446 182.797 245.67 187.44C253.937 194.792 258.002 196.166 271.548 196.186C285.848 196.209 290.059 195.122 299.049 189.088L306.018 184.41L304.623 180.35C303.856 178.117 303.586 175.608 304.025 174.775C304.464 173.943 305.161 171.836 305.576 170.092C306.252 167.252 306.089 167 303.994 167.666C302.599 168.109 300.563 167.691 298.946 166.631C296.37 164.941 295.762 165.078 286.757 169.359C281.543 171.836 275.108 174.259 272.454 174.742C266.903 175.752 258.899 174.434 257.05 172.203C255.108 169.863 253.65 163.869 254.843 163.131C255.412 162.78 255.879 161.33 255.879 159.91C255.879 157.904 256.94 156.923 260.636 155.513C269.665 152.069 282.2 149.238 288.543 149.212C298.1 149.172 299.91 148.077 303.874 139.936C305.792 135.995 307.362 131.548 307.362 130.053C307.362 124.435 295.444 107.517 287.915 102.449C280.684 97.5797 270.09 94.8384 264.833 96.4745ZM280.91 119.032C284.039 121.494 284.69 123.903 282.576 125.21C279.862 126.889 266.518 128.835 265.392 127.716C264.156 126.488 274.059 116.711 276.542 116.711C277.323 116.711 279.288 117.755 280.91 119.032Z" fill="currentColor"/>
<path fill-rule="evenodd" clip-rule="evenodd" d="M204.96 99.3798C202.193 100.757 197.49 104.297 194.51 107.248C190.589 111.128 188.507 112.426 186.98 111.941C184.528 111.161 180.333 105.664 180.333 103.231C180.333 101.332 178.272 100.29 172.126 99.0775C168.591 98.3798 167.346 98.6531 165.048 100.631C162.445 102.871 162.235 103.845 161.878 115.335C161.544 126.099 160.822 134.358 160.215 134.358C160.108 134.358 159.806 135.618 159.543 137.158C159.279 138.698 158.54 142.477 157.898 145.557C157.257 148.636 155.473 155.927 155.156 159.315C154.839 162.702 154.152 167.741 153.629 170.513C152.098 178.637 154.894 190.761 158.631 192.196C161.178 193.173 165.686 191.918 170.519 188.884C176.035 185.423 179.333 180.96 179.333 176.956C179.333 170.864 195.022 141.401 202.346 133.798C203.236 132.875 206.109 129.695 208.729 126.735C213.41 121.444 213.618 121.346 220.608 121.12C225.085 120.975 227.893 120.376 228.184 119.505C228.437 118.744 229.581 118.121 230.724 118.121C231.868 118.121 233.12 117.609 233.506 116.983C233.893 116.357 234.621 116.1 235.124 116.411C236.459 117.236 239.168 113.631 237.9 112.717C237.324 112.301 234.958 109.603 232.642 106.718C229.516 102.824 226.84 100.879 222.248 99.1592C214.407 96.2242 211.218 96.2656 204.96 99.3798Z" fill="currentColor"/>
<path fill-rule="evenodd" clip-rule="evenodd" d="M81.6477 0.1706C77.4917 0.709284 71.1771 3.45867 67.7828 6.20605C66.2204 7.47131 64.5438 8.26084 64.0578 7.96102C61.9221 6.64479 49.0825 17.3695 42.5193 25.9514C41.1955 27.6814 38.4095 30.8935 36.328 33.0882C34.2455 35.284 31.2129 39.0807 29.5884 41.5253C27.9639 43.9699 25.675 47.095 24.5025 48.4692C22.6966 50.585 17.2178 59.2649 8.56209 73.7254C7.4998 75.5003 5.09963 79.2961 3.22859 82.1614C0.310299 86.6308 -0.0975807 87.98 0.361409 91.6558C1.03486 97.0666 2.72651 103.988 3.92109 106.219C4.82103 107.901 7.05384 114.836 10.6406 127.089C12.7381 134.254 14.7224 137.057 18.3362 137.963C21.7856 138.825 25.0687 135.304 26.8846 128.793C33.9248 103.551 55.4312 69.6528 70.4606 60.1094C75.8482 56.6874 75.8873 56.5505 61.3118 92.4823C45.9427 130.372 35.9962 162.893 34.5782 179.892C33.9408 187.541 34.1132 188.515 38.5768 202.379C41.1423 210.349 43.6217 218.894 44.0867 221.368C46.1952 232.599 49.6266 235.894 56.2128 233.014C59.4188 231.613 73.1163 218.951 79.6434 211.355C81.2969 209.432 85.6203 204.488 89.2511 200.371C105.477 181.969 117.224 163.438 133.279 130.921C145.591 105.984 151.15 92.9131 156.762 75.7072L158.471 70.4643L162.651 72.8998C164.95 74.2391 170.214 76.036 174.348 76.8925C182.949 78.6745 183.664 78.7394 183.006 77.678C182.743 77.2533 184.182 76.8385 186.204 76.7566C203.52 76.06 211.673 74.271 206.63 72.2762C205.303 71.7505 205.483 71.5766 207.419 71.5127C211.238 71.3847 214.434 70.3384 214.434 69.215C214.434 68.6164 213.111 68.4605 211.177 68.8312C208.861 69.274 208.354 69.17 209.423 68.4714C210.25 67.9308 210.475 67.468 209.924 67.4431C209.373 67.4181 209.765 66.9094 210.795 66.3117C212.163 65.5202 212.861 65.5372 213.381 66.3767C214.647 68.4205 224.66 64.155 223.805 61.9343C223.494 61.1248 223.738 60.4622 224.348 60.4622C224.959 60.4622 226.36 59.5627 227.462 58.4633C228.564 57.364 229.209 56.4645 228.894 56.4645C228.578 56.4645 229.01 55.7769 229.853 54.9364C230.696 54.0959 231.131 52.7467 230.82 51.9382C230.473 51.0347 230.851 50.468 231.805 50.468C233.862 50.468 234.887 48.6821 233.696 47.176C233.17 46.5134 232.8 44.8463 232.872 43.4721C233.033 40.4159 230.254 37.3717 228.366 38.536C227.63 38.9888 226.562 39.0058 225.993 38.573C224.882 37.7285 217.844 35.7927 212.931 34.9811C200.405 32.9094 183.181 29.3904 179.859 28.2241C177.356 27.3446 175.098 25.6146 173.846 23.6188C167.884 14.1074 167.797 14.0175 164.13 13.4228C162.128 13.098 159.276 12.0396 157.793 11.0712C154.563 8.96044 148.882 9.63604 147.733 12.2675C147.32 13.2149 146.892 17.3625 146.784 21.4851C146.669 25.8255 145.679 31.865 144.432 35.8316C143.248 39.6004 142.278 43.9848 142.278 45.5759C142.278 47.167 141.827 48.4692 141.276 48.4692C140.725 48.4692 140.267 49.0319 140.259 49.7185C140.251 50.4061 138.654 54.1159 136.707 57.9636C134.299 62.7288 132.983 66.9254 132.584 71.1249C132.108 76.107 131.702 77.1773 130.464 76.7036C129.203 76.2209 129.049 76.7216 129.591 79.5329C130.01 81.7037 129.921 82.4382 129.347 81.5488C128.662 80.4874 127.903 81.204 126.215 84.505C124.752 87.3654 124.374 88.9904 125.115 89.2362C125.736 89.4431 126.244 90.0618 126.244 90.6114C126.244 91.1611 125.685 91.425 125.001 91.1971C123.215 90.6034 121.289 93.5207 115.266 105.935C112.333 111.982 109.332 117.625 108.597 118.475C107.862 119.326 106.087 122.249 104.652 124.971C102.256 129.521 97.3966 137.225 96.172 138.416C95.8894 138.691 94.761 140.635 93.6636 142.737C92.5672 144.838 89.7051 148.168 87.3039 150.135C84.9037 152.104 79.7967 156.836 75.9564 160.65C72.1161 164.465 68.7519 167.364 68.4803 167.094C67.871 166.487 75.5064 145.314 85.6704 119.428C92.927 100.944 100.744 78.7054 103.058 69.9566C105.536 60.5901 107.426 40.4719 107.014 27.8553C106.517 12.6403 104.975 8.21387 99.2617 5.60041C97.2904 4.69894 94.5505 3.2268 93.1725 2.32733C90.2633 0.430448 85.9179 -0.383074 81.6477 0.1706Z" fill="currentColor"/>
</svg>
