<!-- Generated by IcoMoon.io -->
<svg version="1.1" xmlns="http://www.w3.org/2000/svg" width="32" height="32" viewBox="0 0 32 32" class="icon icon_fill" fill="currentColor">
<title>social-tumblr</title>
<path d="M22.827 22.443c-0.154-0.083-0.342-0.075-0.488 0.021-1.108 0.729-2.232 1.098-3.34 1.098-0.595 0-1.107-0.133-1.566-0.408-0.312-0.185-0.602-0.508-0.706-0.788-0.101-0.267-0.1-0.985-0.098-1.979l0.001-6.061h5.036c0.263 0 0.477-0.213 0.477-0.477v-4.259c0-0.263-0.213-0.477-0.477-0.477h-5.036v-5.037c0-0.263-0.213-0.477-0.477-0.477h-3.392c-0.241 0-0.444 0.18-0.473 0.419-0.142 1.166-0.406 2.135-0.787 2.88-0.371 0.734-0.873 1.374-1.493 1.901-0.497 0.424-1.347 0.833-2.527 1.218-0.196 0.064-0.329 0.247-0.329 0.453v3.378c0 0.263 0.213 0.477 0.477 0.477h2.762v7.885c0 1.162 0.123 2.036 0.377 2.673 0.258 0.647 0.717 1.257 1.364 1.812 0.636 0.545 1.411 0.972 2.304 1.268 0.866 0.283 1.556 0.436 2.72 0.436 0.983 0 1.921-0.102 2.786-0.303 0.851-0.199 1.814-0.549 2.862-1.043 0.167-0.079 0.274-0.247 0.274-0.432v-3.76c-0-0.175-0.096-0.337-0.251-0.42z"></path>
</svg>
