<!-- Generated by IcoMoon.io -->
<svg version="1.1" xmlns="http://www.w3.org/2000/svg" width="32" height="32" viewBox="0 0 32 32" class="icon icon_fill" fill="currentColor">
<title>social-twitter</title>
<path d="M28.308 9.135c-0.844 0.386-1.824 0.666-2.852 0.788l-0.047 0.005c1.043-0.633 1.828-1.603 2.211-2.757l0.010-0.036c-0.976 0.577-2.058 1-3.207 1.226-0.923-0.98-2.23-1.591-3.679-1.591-0.003 0-0.006 0-0.009 0h0c-0.001 0-0.002 0-0.003 0-2.788 0-5.048 2.26-5.048 5.048 0 0.408 0.048 0.804 0.139 1.183l-0.007-0.034c-4.207-0.217-7.908-2.217-10.389-5.253l-0.020-0.026c-0.429 0.726-0.683 1.601-0.683 2.534 0 0.001 0 0.002 0 0.004v-0c0 1.75 0.889 3.298 2.245 4.202-0.844-0.027-1.628-0.258-2.313-0.643l0.025 0.013v0.063c0 0 0 0.001 0 0.001 0 2.436 1.725 4.469 4.020 4.945l0.033 0.006c-0.399 0.113-0.857 0.177-1.33 0.177-0.337 0-0.667-0.033-0.986-0.096l0.032 0.005c0.667 2.021 2.517 3.462 4.71 3.51l0.006 0c-1.705 1.35-3.886 2.165-6.258 2.165-0.431 0-0.856-0.027-1.272-0.079l0.050 0.005c2.183 1.423 4.854 2.269 7.723 2.269 0.008 0 0.015 0 0.023-0h-0.001c9.288 0 14.37-7.697 14.37-14.37 0-0.221-0.005-0.438-0.014-0.654 0.993-0.72 1.829-1.586 2.496-2.575l0.023-0.036z"></path>
</svg>
