<!-- Generated by IcoMoon.io -->
<svg version="1.1" xmlns="http://www.w3.org/2000/svg" width="32" height="32" viewBox="0 0 32 32" class="icon icon_fill" fill="currentColor">
<title>social-dribbble</title>
<path d="M3.2 16c0-2.321 0.572-4.463 1.715-6.426s2.697-3.516 4.659-4.659c1.963-1.143 4.105-1.715 6.426-1.715s4.463 0.572 6.426 1.715c1.963 1.143 3.516 2.697 4.659 4.659s1.715 4.105 1.715 6.426-0.572 4.463-1.715 6.426c-1.143 1.963-2.697 3.516-4.659 4.659s-4.105 1.715-6.426 1.715c-2.321 0-4.463-0.572-6.426-1.715s-3.516-2.697-4.659-4.659c-1.143-1.963-1.715-4.105-1.715-6.426zM5.325 16c0 2.662 0.896 5.009 2.688 7.040 0.819-1.604 2.116-3.132 3.891-4.582s3.507-2.364 5.197-2.739c-0.256-0.597-0.503-1.135-0.742-1.613-2.935 0.939-6.11 1.408-9.523 1.408-0.666 0-1.161-0.009-1.485-0.026 0 0.068-0.004 0.154-0.013 0.256s-0.013 0.188-0.013 0.256zM5.658 13.363c0.375 0.034 0.93 0.051 1.664 0.051 2.85 0 5.555-0.384 8.115-1.152-1.297-2.304-2.722-4.224-4.275-5.76-1.348 0.683-2.505 1.63-3.469 2.842s-1.643 2.551-2.035 4.019zM9.472 24.422c1.929 1.502 4.105 2.253 6.528 2.253 1.263 0 2.517-0.239 3.763-0.717-0.341-2.918-1.007-5.743-1.997-8.474-1.57 0.341-3.153 1.203-4.749 2.586s-2.778 2.833-3.546 4.352zM13.389 5.683c1.502 1.553 2.893 3.49 4.173 5.811 2.321-0.973 4.070-2.21 5.248-3.712-1.98-1.638-4.25-2.458-6.81-2.458-0.87 0-1.741 0.119-2.611 0.358zM18.483 13.312c0.256 0.546 0.546 1.237 0.87 2.074 1.263-0.119 2.637-0.179 4.122-0.179 1.058 0 2.108 0.026 3.149 0.077-0.137-2.321-0.973-4.386-2.509-6.195-1.109 1.655-2.987 3.063-5.632 4.224zM19.994 17.178c0.87 2.526 1.459 5.12 1.766 7.782 1.348-0.87 2.449-1.988 3.302-3.354s1.365-2.842 1.536-4.429c-1.246-0.085-2.381-0.128-3.405-0.128-0.939 0-2.005 0.043-3.2 0.128z"></path>
</svg>
