<!-- Generated by IcoMoon.io -->
<svg version="1.1" xmlns="http://www.w3.org/2000/svg" width="32" height="32" viewBox="0 0 32 32" class="icon icon_fill" fill="currentColor">
<title>social-youtube</title>
<path d="M28.962 9.45c-0.308-1.169-1.23-2.091-2.399-2.414-2.107-0.569-10.564-0.569-10.564-0.569s-8.457 0-10.579 0.569c-1.169 0.308-2.076 1.23-2.399 2.414-0.554 2.122-0.554 6.55-0.554 6.55s0 4.428 0.569 6.55c0.308 1.169 1.23 2.091 2.399 2.414 2.107 0.569 10.564 0.569 10.564 0.569s8.457 0 10.579-0.569c1.169-0.308 2.076-1.23 2.399-2.414 0.554-2.122 0.554-6.55 0.554-6.55s0-4.428-0.569-6.55zM13.232 20.029v-8.057l7.073 4.029-7.073 4.029z"></path>
</svg>
