<svg xmlns="http://www.w3.org/2000/svg" width="32" height="32" viewBox="0 0 32 32" class="icon icon_fill" fill="currentColor"><path d="M16 5.506c3.418 0 3.823.013 5.172.075 1.248.057 1.926.265 2.377.441.597.232 1.024.51 1.472.957s.725.874.957 1.472c.175.451.384 1.129.441 2.377.062 1.35.075 1.755.075 5.172s-.013 3.823-.075 5.172c-.057 1.248-.265 1.926-.441 2.377-.232.597-.51 1.024-.957 1.472s-.874.725-1.472.957c-.451.175-1.129.384-2.377.441-1.349.062-1.754.075-5.172.075s-3.823-.013-5.172-.075c-1.248-.057-1.926-.265-2.377-.441-.597-.232-1.024-.51-1.472-.957s-.725-.874-.957-1.472c-.175-.451-.384-1.129-.441-2.377-.062-1.35-.075-1.755-.075-5.172s.013-3.823.075-5.172c.057-1.248.265-1.926.441-2.377.232-.597.51-1.024.957-1.472s.874-.725 1.472-.957c.451-.175 1.129-.384 2.377-.441 1.35-.062 1.755-.075 5.172-.075zM16 3.2c-3.476 0-3.912.015-5.277.077-1.362.062-2.293.279-3.107.595-.842.327-1.556.765-2.267 1.476S4.2 6.773 3.873 7.615c-.316.814-.533 1.745-.595 3.107-.062 1.365-.077 1.801-.077 5.277s.015 3.912.077 5.277c.062 1.362.279 2.293.595 3.107.327.842.765 1.556 1.476 2.267s1.425 1.149 2.267 1.476c.814.316 1.745.533 3.107.595 1.365.062 1.801.077 5.277.077s3.912-.015 5.277-.077c1.362-.062 2.293-.279 3.107-.595.842-.327 1.556-.765 2.267-1.476s1.149-1.425 1.476-2.267c.316-.814.533-1.745.595-3.107.062-1.365.077-1.801.077-5.277s-.015-3.912-.077-5.277c-.062-1.362-.279-2.293-.595-3.107-.327-.842-.765-1.556-1.476-2.267s-1.425-1.149-2.267-1.476c-.814-.316-1.745-.533-3.107-.595C19.912 3.215 19.476 3.2 16 3.2zm0 6.227a6.573 6.573 0 1 0 0 13.146 6.573 6.573 0 0 0 0-13.146zm0 10.84a4.267 4.267 0 1 1 0-8.534 4.267 4.267 0 0 1 0 8.534zm8.369-11.1a1.536 1.536 0 1 1-3.073 0 1.536 1.536 0 0 1 3.073 0z"/></svg>