<svg xmlns="http://www.w3.org/2000/svg" width="25" height="32" viewBox="0 0 25 32" class="icon icon_fill" fill="currentColor"><path d="M11.169 3.285c-4.254.475-8.493 3.917-8.668 8.833-.11 3.002.742 5.254 3.599 5.886 1.24-2.187-.4-2.669-.655-4.252-1.047-6.484 7.479-10.905 11.94-6.379 3.087 3.134 1.055 12.778-3.924 11.775-4.769-.957 2.335-8.633-1.472-10.141-3.094-1.225-4.739 3.747-3.272 6.216-.86 4.247-2.712 8.248-1.962 13.575 2.432-1.765 3.252-5.144 3.924-8.668 1.222.742 1.875 1.515 3.434 1.635 5.751.445 8.963-5.741 8.178-11.448-.697-5.059-5.746-7.633-11.123-7.034z"/></svg>