<svg xmlns="http://www.w3.org/2000/svg" width="32" height="32" viewBox="0 0 32 32" class="icon icon_fill" fill="currentColor"><path d="M18.876 20.2c-.513.517-.079 1.458-.079 1.458l3.862 6.449s.634.85 1.183.85c.552 0 1.097-.453 1.097-.453l3.053-4.364s.308-.55.315-1.033c.011-.686-1.023-.874-1.023-.874l-7.229-2.321s-.708-.188-1.18.288zm-.367-3.25c.37.627 1.39.444 1.39.444l7.212-2.108s.983-.4 1.123-.933c.138-.533-.162-1.176-.162-1.176l-3.447-4.06s-.299-.513-.918-.565c-.683-.058-1.104.769-1.104.769l-4.075 6.413s-.36.639-.019 1.216zm-3.407-2.501c.849-.209.984-1.443.984-1.443l-.058-10.268s-.128-1.267-.697-1.61c-.893-.542-1.157-.259-1.413-.221L7.93 3.132s-.586.194-.892.683c-.436.693.443 1.708.443 1.708l6.224 8.483s.614.635 1.397.442zm-1.479 4.156c.021-.792-.951-1.268-.951-1.268l-6.436-3.252s-.954-.393-1.417-.119c-.355.21-.669.589-.7.924L3.7 20.05s-.063.894.169 1.301c.328.577 1.408.175 1.408.175l7.514-1.661c.292-.196.804-.214.832-1.261zm1.869 2.785c-.645-.331-1.417.355-1.417.355l-5.031 5.539s-.628.847-.468 1.367c.15.487.399.73.752.9l5.053 1.595s.613.127 1.076-.007c.658-.191.537-1.222.537-1.222l.114-7.499s-.026-.722-.616-1.028z"/></svg>