<svg xmlns="http://www.w3.org/2000/svg" width="32" height="32" viewBox="0 0 32 32" class="icon icon_fill" fill="currentColor"><path d="M28.962 9.45a3.425 3.425 0 0 0-2.399-2.414c-2.107-.569-10.564-.569-10.564-.569s-8.457 0-10.579.569c-1.169.308-2.076 1.23-2.399 2.414-.554 2.122-.554 6.55-.554 6.55s0 4.428.569 6.55a3.425 3.425 0 0 0 2.399 2.414c2.107.569 10.564.569 10.564.569s8.457 0 10.579-.569c1.169-.308 2.076-1.23 2.399-2.414.554-2.122.554-6.55.554-6.55s0-4.428-.569-6.55zm-15.73 10.579v-8.057l7.073 4.029-7.073 4.029z"/></svg>