<svg xmlns="http://www.w3.org/2000/svg" width="32" height="32" viewBox="0 0 32 32" class="icon icon_fill" fill="currentColor"><path d="M28.308 9.135a9.666 9.666 0 0 1-2.852.788l-.047.005a5.109 5.109 0 0 0 2.211-2.757l.01-.036c-.976.577-2.058 1-3.207 1.226a5.039 5.039 0 0 0-3.679-1.591h-.012a5.048 5.048 0 0 0-4.909 6.231l-.007-.034A14.326 14.326 0 0 1 5.427 7.714l-.02-.026a4.99 4.99 0 0 0-.683 2.534v.004c0 1.75.889 3.298 2.245 4.202a5.029 5.029 0 0 1-2.313-.643l.025.013v.064a5.052 5.052 0 0 0 4.02 4.945l.033.006a5.088 5.088 0 0 1-2.316.081l.032.005c.667 2.021 2.517 3.462 4.71 3.51h.006a10.06 10.06 0 0 1-6.258 2.165c-.431 0-.856-.027-1.272-.079l.05.005a14.141 14.141 0 0 0 7.723 2.269h.023-.001c9.288 0 14.37-7.697 14.37-14.37 0-.221-.005-.438-.014-.654a10.254 10.254 0 0 0 2.496-2.575l.023-.036z"/></svg>