<svg xmlns="http://www.w3.org/2000/svg" width="32" height="32" viewBox="0 0 32 32" class="icon icon_fill" fill="currentColor"><path d="M16 3.281C8.973 3.281 3.281 8.973 3.281 16c0 5.628 3.641 10.382 8.697 12.067.636.111.874-.27.874-.604 0-.302-.016-1.304-.016-2.369-3.196.588-4.022-.779-4.277-1.494-.143-.366-.763-1.494-1.304-1.797-.445-.238-1.081-.827-.016-.843 1.002-.016 1.717.922 1.956 1.304 1.145 1.924 2.973 1.383 3.704 1.049.111-.827.445-1.383.811-1.701-2.83-.318-5.787-1.415-5.787-6.28 0-1.383.493-2.528 1.304-3.418-.127-.318-.572-1.622.127-3.371 0 0 1.065-.334 3.498 1.304 1.018-.286 2.099-.429 3.18-.429s2.162.143 3.18.429c2.433-1.653 3.498-1.304 3.498-1.304.7 1.749.254 3.053.127 3.371.811.89 1.304 2.019 1.304 3.418 0 4.881-2.973 5.962-5.803 6.28.461.398.858 1.161.858 2.353 0 1.701-.016 3.069-.016 3.498 0 .334.238.731.874.604 5.024-1.685 8.665-6.455 8.665-12.067 0-7.027-5.692-12.719-12.719-12.719z"/></svg>