<svg xmlns="http://www.w3.org/2000/svg" width="32" height="32" viewBox="0 0 32 32" class="icon icon_fill" fill="currentColor"><path d="M27.709 16.931v8.658H22.69v-8.078c0-2.029-.726-3.414-2.543-3.414-1.387 0-2.212.933-2.576 1.836-.132.323-.166.772-.166 1.224v8.432h-5.021s.068-13.682 0-15.099h5.02v2.14l-.033.049h.033v-.049c.667-1.027 1.858-2.495 4.525-2.495 3.303 0 5.78 2.158 5.78 6.796zM7.132 3.211c-1.718 0-2.841 1.127-2.841 2.608 0 1.449 1.091 2.61 2.775 2.61H7.1c1.751 0 2.84-1.161 2.84-2.61-.033-1.482-1.089-2.608-2.807-2.608zM4.589 25.589h5.019V10.49H4.589v15.099z"/></svg>