<svg xmlns="http://www.w3.org/2000/svg" width="32" height="32" viewBox="0 0 32 32" class="icon icon_fill" fill="currentColor"><path d="M3.2 16c0-2.321.572-4.463 1.715-6.426s2.697-3.516 4.659-4.659C11.537 3.772 13.679 3.2 16 3.2s4.463.572 6.426 1.715c1.963 1.143 3.516 2.697 4.659 4.659S28.8 13.679 28.8 16s-.572 4.463-1.715 6.426c-1.143 1.963-2.697 3.516-4.659 4.659S18.321 28.8 16 28.8c-2.321 0-4.463-.572-6.426-1.715s-3.516-2.697-4.659-4.659C3.772 20.463 3.2 18.321 3.2 16zm2.125 0c0 2.662.896 5.009 2.688 7.04.819-1.604 2.116-3.132 3.891-4.582s3.507-2.364 5.197-2.739a30.58 30.58 0 0 0-.742-1.613c-2.935.939-6.11 1.408-9.523 1.408-.666 0-1.161-.009-1.485-.026 0 .068-.004.154-.013.256s-.013.188-.013.256zm.333-2.637c.375.034.93.051 1.664.051 2.85 0 5.555-.384 8.115-1.152-1.297-2.304-2.722-4.224-4.275-5.76-1.348.683-2.505 1.63-3.469 2.842s-1.643 2.551-2.035 4.019zm3.814 11.059c1.929 1.502 4.105 2.253 6.528 2.253 1.263 0 2.517-.239 3.763-.717a37.58 37.58 0 0 0-1.997-8.474c-1.57.341-3.153 1.203-4.749 2.586s-2.778 2.833-3.546 4.352zm3.917-18.739c1.502 1.553 2.893 3.49 4.173 5.811 2.321-.973 4.07-2.21 5.248-3.712-1.98-1.638-4.25-2.458-6.81-2.458-.87 0-1.741.119-2.611.358zm5.094 7.629a33.5 33.5 0 0 1 .87 2.074 44.107 44.107 0 0 1 4.122-.179c1.058 0 2.108.026 3.149.077-.137-2.321-.973-4.386-2.509-6.195-1.109 1.655-2.987 3.063-5.632 4.224zm1.511 3.866a36.76 36.76 0 0 1 1.766 7.782c1.348-.87 2.449-1.988 3.302-3.354s1.365-2.842 1.536-4.429a50.414 50.414 0 0 0-3.405-.128c-.939 0-2.005.043-3.2.128z"/></svg>