<!-- Generated by IcoMoon.io -->
<svg version="1.1" xmlns="http://www.w3.org/2000/svg" width="25" height="32" viewBox="0 0 25 32" class="icon icon_fill" fill="currentColor">
<title>social-pinterest</title>
<path d="M11.169 3.285c-4.254 0.475-8.493 3.917-8.668 8.833-0.11 3.002 0.742 5.254 3.599 5.886 1.24-2.187-0.4-2.669-0.655-4.252-1.047-6.484 7.479-10.905 11.94-6.379 3.087 3.134 1.055 12.778-3.924 11.775-4.769-0.957 2.335-8.633-1.472-10.141-3.094-1.225-4.739 3.747-3.272 6.216-0.86 4.247-2.712 8.248-1.962 13.575 2.432-1.765 3.252-5.144 3.924-8.668 1.222 0.742 1.875 1.515 3.434 1.635 5.751 0.445 8.963-5.741 8.178-11.448-0.697-5.059-5.746-7.633-11.123-7.034z"></path>
</svg>
