<!-- Generated by IcoMoon.io -->
<svg version="1.1" xmlns="http://www.w3.org/2000/svg" width="32" height="32" viewBox="0 0 32 32" class="icon icon_fill" fill="currentColor">
<title>social-linkedin</title>
<path d="M27.709 16.931v8.658h-5.019v-8.078c0-2.029-0.726-3.414-2.543-3.414-1.387 0-2.212 0.933-2.576 1.836-0.132 0.323-0.166 0.772-0.166 1.224v8.432h-5.021c0 0 0.068-13.682 0-15.099h5.020v2.14c-0.010 0.016-0.023 0.033-0.033 0.049h0.033v-0.049c0.667-1.027 1.858-2.495 4.525-2.495 3.303-0 5.78 2.158 5.78 6.796zM7.132 3.211c-1.718 0-2.841 1.127-2.841 2.608 0 1.449 1.091 2.61 2.775 2.61h0.034c1.751 0 2.84-1.161 2.84-2.61-0.033-1.482-1.089-2.608-2.807-2.608zM4.589 25.589h5.019v-15.099h-5.019v15.099z"></path>
</svg>
