<!-- Generated by IcoMoon.io -->
<svg version="1.1" xmlns="http://www.w3.org/2000/svg" width="32" height="32" viewBox="0 0 32 32" class="icon icon_fill" fill="currentColor">
<title>social-github</title>
<path d="M16 3.281c-7.027 0-12.719 5.692-12.719 12.719 0 5.628 3.641 10.382 8.697 12.067 0.636 0.111 0.874-0.27 0.874-0.604 0-0.302-0.016-1.304-0.016-2.369-3.196 0.588-4.022-0.779-4.277-1.494-0.143-0.366-0.763-1.494-1.304-1.797-0.445-0.238-1.081-0.827-0.016-0.843 1.002-0.016 1.717 0.922 1.956 1.304 1.145 1.924 2.973 1.383 3.704 1.049 0.111-0.827 0.445-1.383 0.811-1.701-2.83-0.318-5.787-1.415-5.787-6.28 0-1.383 0.493-2.528 1.304-3.418-0.127-0.318-0.572-1.622 0.127-3.371 0 0 1.065-0.334 3.498 1.304 1.018-0.286 2.099-0.429 3.18-0.429s2.162 0.143 3.18 0.429c2.433-1.653 3.498-1.304 3.498-1.304 0.7 1.749 0.254 3.053 0.127 3.371 0.811 0.89 1.304 2.019 1.304 3.418 0 4.881-2.973 5.962-5.803 6.28 0.461 0.398 0.858 1.161 0.858 2.353 0 1.701-0.016 3.069-0.016 3.498 0 0.334 0.238 0.731 0.874 0.604 5.024-1.685 8.665-6.455 8.665-12.067 0-7.027-5.692-12.719-12.719-12.719z"></path>
</svg>
