<!-- Generated by IcoMoon.io -->
<svg version="1.1" xmlns="http://www.w3.org/2000/svg" width="32" height="32" viewBox="0 0 32 32" class="icon icon_fill" fill="currentColor">
<title>social-instagram</title>
<path d="M16 5.506c3.418 0 3.823 0.013 5.172 0.075 1.248 0.057 1.926 0.265 2.377 0.441 0.597 0.232 1.024 0.51 1.472 0.957s0.725 0.874 0.957 1.472c0.175 0.451 0.384 1.129 0.441 2.377 0.062 1.35 0.075 1.755 0.075 5.172s-0.013 3.823-0.075 5.172c-0.057 1.248-0.265 1.926-0.441 2.377-0.232 0.597-0.51 1.024-0.957 1.472s-0.874 0.725-1.472 0.957c-0.451 0.175-1.129 0.384-2.377 0.441-1.349 0.062-1.754 0.075-5.172 0.075s-3.823-0.013-5.172-0.075c-1.248-0.057-1.926-0.265-2.377-0.441-0.597-0.232-1.024-0.51-1.472-0.957s-0.725-0.874-0.957-1.472c-0.175-0.451-0.384-1.129-0.441-2.377-0.062-1.35-0.075-1.755-0.075-5.172s0.013-3.823 0.075-5.172c0.057-1.248 0.265-1.926 0.441-2.377 0.232-0.597 0.51-1.024 0.957-1.472s0.874-0.725 1.472-0.957c0.451-0.175 1.129-0.384 2.377-0.441 1.35-0.062 1.755-0.075 5.172-0.075zM16 3.2c-3.476 0-3.912 0.015-5.277 0.077-1.362 0.062-2.293 0.279-3.107 0.595-0.842 0.327-1.556 0.765-2.267 1.476s-1.149 1.425-1.476 2.267c-0.316 0.814-0.533 1.745-0.595 3.107-0.062 1.365-0.077 1.801-0.077 5.277s0.015 3.912 0.077 5.277c0.062 1.362 0.279 2.293 0.595 3.107 0.327 0.842 0.765 1.556 1.476 2.267s1.425 1.149 2.267 1.476c0.814 0.316 1.745 0.533 3.107 0.595 1.365 0.062 1.801 0.077 5.277 0.077s3.912-0.015 5.277-0.077c1.362-0.062 2.293-0.279 3.107-0.595 0.842-0.327 1.556-0.765 2.267-1.476s1.149-1.425 1.476-2.267c0.316-0.814 0.533-1.745 0.595-3.107 0.062-1.365 0.077-1.801 0.077-5.277s-0.015-3.912-0.077-5.277c-0.062-1.362-0.279-2.293-0.595-3.107-0.327-0.842-0.765-1.556-1.476-2.267s-1.425-1.149-2.267-1.476c-0.814-0.316-1.745-0.533-3.107-0.595-1.365-0.062-1.801-0.077-5.277-0.077zM16 9.427c-3.63 0-6.573 2.943-6.573 6.573s2.943 6.573 6.573 6.573c3.63 0 6.573-2.943 6.573-6.573s-2.943-6.573-6.573-6.573zM16 20.267c-2.356 0-4.267-1.91-4.267-4.267s1.91-4.267 4.267-4.267c2.356 0 4.267 1.91 4.267 4.267s-1.91 4.267-4.267 4.267zM24.369 9.167c0 0.848-0.688 1.536-1.536 1.536s-1.536-0.688-1.536-1.536c0-0.848 0.688-1.536 1.536-1.536s1.536 0.688 1.536 1.536z"></path>
</svg>
