<!-- Generated by IcoMoon.io -->
<svg version="1.1" xmlns="http://www.w3.org/2000/svg" width="32" height="32" viewBox="0 0 32 32" class="icon icon_fill" fill="currentColor">
<title>social-yelp</title>
<path d="M18.876 20.2c-0.513 0.517-0.079 1.458-0.079 1.458l3.862 6.449c0 0 0.634 0.85 1.183 0.85 0.552 0 1.097-0.453 1.097-0.453l3.053-4.364c0 0 0.308-0.55 0.315-1.033 0.011-0.686-1.023-0.874-1.023-0.874l-7.229-2.321c-0 0-0.708-0.188-1.18 0.288zM18.509 16.95c0.37 0.627 1.39 0.444 1.39 0.444l7.212-2.108c0 0 0.983-0.4 1.123-0.933 0.138-0.533-0.162-1.176-0.162-1.176l-3.447-4.060c0 0-0.299-0.513-0.918-0.565-0.683-0.058-1.104 0.769-1.104 0.769l-4.075 6.413c0 0-0.36 0.639-0.019 1.216zM15.102 14.449c0.849-0.209 0.984-1.443 0.984-1.443l-0.058-10.268c0 0-0.128-1.267-0.697-1.61-0.893-0.542-1.157-0.259-1.413-0.221l-5.988 2.225c0 0-0.586 0.194-0.892 0.683-0.436 0.693 0.443 1.708 0.443 1.708l6.224 8.483c-0-0 0.614 0.635 1.397 0.442zM13.623 18.605c0.021-0.792-0.951-1.268-0.951-1.268l-6.436-3.252c0 0-0.954-0.393-1.417-0.119-0.355 0.21-0.669 0.589-0.7 0.924l-0.419 5.16c0 0-0.063 0.894 0.169 1.301 0.328 0.577 1.408 0.175 1.408 0.175l7.514-1.661c0.292-0.196 0.804-0.214 0.832-1.261zM15.492 21.39c-0.645-0.331-1.417 0.355-1.417 0.355l-5.031 5.539c0 0-0.628 0.847-0.468 1.367 0.15 0.487 0.399 0.73 0.752 0.9l5.053 1.595c0 0 0.613 0.127 1.076-0.007 0.658-0.191 0.537-1.222 0.537-1.222l0.114-7.499c-0 0-0.026-0.722-0.616-1.028z"></path>
</svg>
